<svg width="342" height="513" viewBox="0 0 342 513" fill="none" xmlns="http://www.w3.org/2000/svg">
<g clip-path="url(#clip0_3_2)">
<rect width="342" height="513" fill="#F2F2F2"/>
<g clip-path="url(#clip1_3_2)">
<path d="M233.899 447.51C235.863 441.794 236.743 435.862 236.491 430.046C236.244 424.166 234.882 418.51 232.48 413.383C229.972 408.022 226.398 403.329 221.958 399.571C217.477 395.76 212.319 393.01 206.636 391.405C201.19 389.854 195.388 389.419 189.544 390.123C183.763 390.803 178.048 392.626 172.723 395.487C167.246 398.423 162.309 402.425 158.223 407.24L101.421 474.036C89.3947 488.178 68.9788 490.644 55.9024 479.524C42.8285 468.406 41.9765 447.85 54.0005 433.71L80.1733 402.933L87.6653 409.304C89.2414 410.644 91.6826 410.352 93.1316 408.648L102.821 397.254C115.674 398.748 129.476 393.584 138.987 382.399L149.984 369.468L154.111 372.977C155.679 374.31 158.123 374.021 159.572 372.317L169.778 360.314C170.988 358.892 171.119 356.936 170.208 355.558L153.529 341.375L179.404 310.948C180.856 309.256 180.754 306.792 179.181 305.454L175.389 302.229C173.813 300.889 171.369 301.188 169.925 302.887L144.05 333.314L129.158 320.651L155.033 290.223C156.477 288.525 156.376 286.061 154.805 284.725L151.01 281.498C149.441 280.164 146.993 280.459 145.549 282.157L119.674 312.585L102.998 298.404C102.26 298.063 101.405 297.995 100.567 298.21C99.7284 298.424 98.954 298.91 98.3649 299.59L88.1607 311.59C86.7117 313.294 86.8184 315.752 88.3842 317.084L92.5133 320.595L81.5163 333.527C72.0025 344.715 69.1227 359.156 72.6651 371.61L62.9756 383.004C61.5266 384.708 61.6282 387.162 63.1991 388.498L70.6938 394.872L44.521 425.649C40.3984 430.497 37.282 435.949 35.2433 441.847C33.2768 447.563 32.396 453.496 32.6509 459.311C32.8944 465.194 34.2544 470.852 36.6575 475.981C39.1577 481.335 42.7054 485.983 47.1817 489.789C51.6579 493.596 56.8208 496.355 62.5018 497.958C67.9479 499.509 73.7511 499.941 79.5958 499.232C85.3779 498.558 91.0951 496.736 96.4191 493.87C101.896 490.933 106.834 486.929 110.919 482.113L167.721 415.316C179.745 401.177 200.163 398.709 213.242 409.831C226.316 420.949 227.166 441.508 215.144 455.644L127.805 558.35L137.284 566.411L224.624 463.706C228.741 458.863 231.863 453.406 233.899 447.51Z" fill="#2F80ED"/>
</g>
<g clip-path="url(#clip2_3_2)">
<path d="M98.5528 91.7273C96.823 97.5182 96.1841 103.482 96.6719 109.282C97.1583 115.148 98.7485 120.744 101.357 125.769C104.08 131.024 107.842 135.567 112.431 139.142C117.063 142.768 122.329 145.306 128.073 146.679C133.577 148.007 139.392 148.206 145.202 147.266C150.951 146.351 156.587 144.298 161.791 141.222C167.144 138.067 171.915 133.868 175.802 128.891L229.844 59.8423C241.286 45.2231 261.585 41.9304 275.102 52.51C288.617 63.0875 290.303 83.5922 278.863 98.2085L253.962 130.024L246.218 123.962C244.588 122.687 242.161 123.078 240.783 124.839L231.564 136.618C218.66 135.647 205.08 141.367 196.031 152.929L185.568 166.297L181.303 162.958C179.681 161.69 177.251 162.078 175.873 163.84L166.162 176.247C165.011 177.717 164.96 179.677 165.926 181.016L183.167 194.51C185.457 196.36 183.83 195.087 185.457 196.36C187.086 197.636 190.219 200.511 192.966 202.18L208.36 214.228L218.164 221.901L235.403 235.393C236.153 235.704 237.01 235.737 237.839 235.489C238.668 235.24 239.422 234.724 239.983 234.02L249.692 221.616C251.07 219.854 250.864 217.402 249.245 216.135L244.977 212.795L255.44 199.427C264.491 187.862 266.782 173.315 262.737 161.016L271.955 149.237C273.334 147.476 273.133 145.028 271.509 143.757L263.761 137.693L288.662 105.878C292.585 100.867 295.477 95.2927 297.275 89.3164C299.007 83.5258 299.646 77.5615 299.155 71.7615C298.673 65.8935 297.084 60.295 294.475 55.2685C291.759 50.0205 288.026 45.5203 283.399 41.8987C278.772 38.2772 273.501 35.7299 267.759 34.3589C262.255 33.0308 256.439 32.8343 250.628 33.7801C244.878 34.6886 239.239 36.7417 234.036 39.8214C228.683 42.9784 223.912 47.1795 220.026 52.1582L165.984 121.207C154.544 135.823 134.243 139.118 120.723 128.537C107.208 117.959 105.524 97.4515 116.962 82.8382L200.057 -23.3305L190.258 -31L107.163 75.1687C103.245 80.1742 100.348 85.7539 98.5528 91.7273Z" fill="#219653"/>
</g>
<path d="M80.3384 247.545V265H78.2248V249.42H69.4293V265H67.3157V247.545H80.3384ZM89.6474 265.273C88.4656 265.273 87.4286 264.991 86.5366 264.429C85.6502 263.866 84.957 263.08 84.457 262.068C83.9627 261.057 83.7156 259.875 83.7156 258.523C83.7156 257.159 83.9627 255.969 84.457 254.952C84.957 253.935 85.6502 253.145 86.5366 252.582C87.4286 252.02 88.4656 251.739 89.6474 251.739C90.8292 251.739 91.8633 252.02 92.7496 252.582C93.6417 253.145 94.3349 253.935 94.8292 254.952C95.3292 255.969 95.5792 257.159 95.5792 258.523C95.5792 259.875 95.3292 261.057 94.8292 262.068C94.3349 263.08 93.6417 263.866 92.7496 264.429C91.8633 264.991 90.8292 265.273 89.6474 265.273ZM89.6474 263.466C90.5451 263.466 91.2837 263.236 91.8633 262.776C92.4428 262.315 92.8718 261.71 93.1502 260.96C93.4286 260.21 93.5678 259.398 93.5678 258.523C93.5678 257.648 93.4286 256.832 93.1502 256.077C92.8718 255.321 92.4428 254.71 91.8633 254.244C91.2837 253.778 90.5451 253.545 89.6474 253.545C88.7496 253.545 88.011 253.778 87.4315 254.244C86.8519 254.71 86.4229 255.321 86.1445 256.077C85.8661 256.832 85.7269 257.648 85.7269 258.523C85.7269 259.398 85.8661 260.21 86.1445 260.96C86.4229 261.71 86.8519 262.315 87.4315 262.776C88.011 263.236 88.7496 263.466 89.6474 263.466ZM103.968 265.273C102.74 265.273 101.684 264.983 100.797 264.403C99.9109 263.824 99.229 263.026 98.7518 262.009C98.2745 260.991 98.0359 259.83 98.0359 258.523C98.0359 257.193 98.2802 256.02 98.7688 255.003C99.2631 253.98 99.9506 253.182 100.831 252.608C101.718 252.028 102.752 251.739 103.934 251.739C104.854 251.739 105.684 251.909 106.422 252.25C107.161 252.591 107.766 253.068 108.238 253.682C108.709 254.295 109.002 255.011 109.115 255.83H107.104C106.951 255.233 106.61 254.705 106.081 254.244C105.559 253.778 104.854 253.545 103.968 253.545C103.184 253.545 102.496 253.75 101.905 254.159C101.32 254.562 100.863 255.134 100.533 255.872C100.209 256.605 100.047 257.466 100.047 258.455C100.047 259.466 100.206 260.347 100.525 261.097C100.848 261.847 101.303 262.429 101.888 262.844C102.479 263.259 103.172 263.466 103.968 263.466C104.49 263.466 104.965 263.375 105.391 263.193C105.817 263.011 106.178 262.75 106.473 262.409C106.769 262.068 106.979 261.659 107.104 261.182H109.115C109.002 261.955 108.721 262.651 108.272 263.27C107.828 263.884 107.24 264.372 106.507 264.736C105.78 265.094 104.934 265.273 103.968 265.273ZM111.025 253.784V251.909H121.661V253.784H117.365V265H115.354V253.784H111.025ZM129.404 265.273C128.142 265.273 127.054 264.994 126.14 264.438C125.23 263.875 124.529 263.091 124.034 262.085C123.546 261.074 123.301 259.898 123.301 258.557C123.301 257.216 123.546 256.034 124.034 255.011C124.529 253.983 125.216 253.182 126.097 252.608C126.983 252.028 128.017 251.739 129.199 251.739C129.881 251.739 130.554 251.852 131.219 252.08C131.884 252.307 132.489 252.676 133.034 253.188C133.58 253.693 134.015 254.364 134.338 255.199C134.662 256.034 134.824 257.062 134.824 258.284V259.136H124.733V257.398H132.779C132.779 256.659 132.631 256 132.336 255.42C132.046 254.841 131.631 254.384 131.091 254.048C130.557 253.713 129.926 253.545 129.199 253.545C128.398 253.545 127.705 253.744 127.12 254.142C126.54 254.534 126.094 255.045 125.782 255.676C125.469 256.307 125.313 256.983 125.313 257.705V258.864C125.313 259.852 125.483 260.69 125.824 261.378C126.171 262.06 126.651 262.58 127.265 262.938C127.878 263.29 128.591 263.466 129.404 263.466C129.932 263.466 130.409 263.392 130.836 263.244C131.267 263.091 131.64 262.864 131.952 262.562C132.265 262.256 132.506 261.875 132.676 261.42L134.62 261.966C134.415 262.625 134.071 263.205 133.588 263.705C133.105 264.199 132.509 264.585 131.799 264.864C131.088 265.136 130.29 265.273 129.404 265.273ZM137.884 269.909V251.909H139.827V253.989H140.066C140.213 253.761 140.418 253.472 140.679 253.119C140.946 252.761 141.327 252.443 141.821 252.165C142.321 251.881 142.998 251.739 143.85 251.739C144.952 251.739 145.924 252.014 146.765 252.565C147.605 253.116 148.262 253.898 148.733 254.909C149.205 255.92 149.441 257.114 149.441 258.489C149.441 259.875 149.205 261.077 148.733 262.094C148.262 263.105 147.608 263.889 146.773 264.446C145.938 264.997 144.975 265.273 143.884 265.273C143.043 265.273 142.37 265.134 141.864 264.855C141.358 264.571 140.969 264.25 140.696 263.892C140.424 263.528 140.213 263.227 140.066 262.989H139.895V269.909H137.884ZM139.861 258.455C139.861 259.443 140.006 260.315 140.296 261.071C140.586 261.821 141.009 262.409 141.566 262.835C142.123 263.256 142.804 263.466 143.611 263.466C144.452 263.466 145.154 263.244 145.716 262.801C146.284 262.352 146.711 261.75 146.995 260.994C147.284 260.233 147.429 259.386 147.429 258.455C147.429 257.534 147.287 256.705 147.003 255.966C146.725 255.222 146.301 254.634 145.733 254.202C145.171 253.764 144.463 253.545 143.611 253.545C142.793 253.545 142.105 253.753 141.549 254.168C140.992 254.577 140.571 255.151 140.287 255.889C140.003 256.622 139.861 257.477 139.861 258.455ZM168.02 257.534V259.409H160.793V257.534H168.02ZM161.27 251.909V265H159.259V251.909H161.27ZM169.554 251.909V265H167.543V251.909H169.554ZM178.716 265.273C177.455 265.273 176.367 264.994 175.452 264.438C174.543 263.875 173.841 263.091 173.347 262.085C172.858 261.074 172.614 259.898 172.614 258.557C172.614 257.216 172.858 256.034 173.347 255.011C173.841 253.983 174.529 253.182 175.409 252.608C176.296 252.028 177.33 251.739 178.512 251.739C179.194 251.739 179.867 251.852 180.532 252.08C181.196 252.307 181.801 252.676 182.347 253.188C182.892 253.693 183.327 254.364 183.651 255.199C183.975 256.034 184.137 257.062 184.137 258.284V259.136H174.046V257.398H182.091C182.091 256.659 181.944 256 181.648 255.42C181.358 254.841 180.944 254.384 180.404 254.048C179.87 253.713 179.239 253.545 178.512 253.545C177.711 253.545 177.017 253.744 176.432 254.142C175.853 254.534 175.407 255.045 175.094 255.676C174.782 256.307 174.625 256.983 174.625 257.705V258.864C174.625 259.852 174.796 260.69 175.137 261.378C175.483 262.06 175.963 262.58 176.577 262.938C177.191 263.29 177.904 263.466 178.716 263.466C179.245 263.466 179.722 263.392 180.148 263.244C180.58 263.091 180.952 262.864 181.265 262.562C181.577 262.256 181.819 261.875 181.989 261.42L183.932 261.966C183.728 262.625 183.384 263.205 182.901 263.705C182.418 264.199 181.821 264.585 181.111 264.864C180.401 265.136 179.603 265.273 178.716 265.273ZM202.708 257.534V259.409H195.48V257.534H202.708ZM195.958 251.909V265H193.946V251.909H195.958ZM204.242 251.909V265H202.23V251.909H204.242ZM211.767 265.307C210.938 265.307 210.185 265.151 209.509 264.838C208.833 264.52 208.296 264.062 207.898 263.466C207.5 262.864 207.301 262.136 207.301 261.284C207.301 260.534 207.449 259.926 207.745 259.46C208.04 258.989 208.435 258.619 208.929 258.352C209.424 258.085 209.969 257.886 210.566 257.756C211.168 257.619 211.773 257.511 212.381 257.432C213.176 257.33 213.821 257.253 214.316 257.202C214.816 257.145 215.179 257.051 215.407 256.92C215.64 256.79 215.756 256.562 215.756 256.239V256.17C215.756 255.33 215.526 254.676 215.066 254.21C214.611 253.744 213.921 253.511 212.995 253.511C212.034 253.511 211.282 253.722 210.736 254.142C210.191 254.562 209.807 255.011 209.586 255.489L207.676 254.807C208.017 254.011 208.472 253.392 209.04 252.949C209.614 252.5 210.239 252.187 210.915 252.011C211.597 251.83 212.267 251.739 212.926 251.739C213.347 251.739 213.83 251.79 214.375 251.892C214.926 251.989 215.458 252.19 215.969 252.497C216.486 252.804 216.915 253.267 217.256 253.886C217.597 254.506 217.767 255.335 217.767 256.375V265H215.756V263.227H215.654C215.517 263.511 215.29 263.815 214.972 264.139C214.654 264.463 214.23 264.739 213.702 264.966C213.174 265.193 212.529 265.307 211.767 265.307ZM212.074 263.5C212.87 263.5 213.54 263.344 214.086 263.031C214.637 262.719 215.051 262.315 215.33 261.821C215.614 261.327 215.756 260.807 215.756 260.261V258.42C215.671 258.523 215.483 258.616 215.194 258.702C214.909 258.781 214.58 258.852 214.205 258.915C213.836 258.972 213.475 259.023 213.123 259.068C212.776 259.108 212.495 259.142 212.279 259.17C211.756 259.239 211.267 259.349 210.813 259.503C210.364 259.651 210 259.875 209.722 260.176C209.449 260.472 209.313 260.875 209.313 261.386C209.313 262.085 209.571 262.614 210.088 262.972C210.611 263.324 211.273 263.5 212.074 263.5ZM223.45 262.034L229.757 251.909H232.075V265H230.064V254.875L223.791 265H221.439V251.909H223.45V262.034ZM228.427 247.545H230.302C230.302 248.466 229.984 249.219 229.348 249.804C228.711 250.389 227.848 250.682 226.757 250.682C225.683 250.682 224.828 250.389 224.191 249.804C223.561 249.219 223.245 248.466 223.245 247.545H225.12C225.12 247.989 225.243 248.378 225.487 248.713C225.737 249.048 226.16 249.216 226.757 249.216C227.353 249.216 227.779 249.048 228.035 248.713C228.297 248.378 228.427 247.989 228.427 247.545ZM234.361 268.75V263.125H235.452C235.719 262.847 235.949 262.545 236.142 262.222C236.336 261.898 236.503 261.514 236.645 261.071C236.793 260.622 236.918 260.077 237.02 259.435C237.123 258.787 237.213 258.006 237.293 257.091L237.736 251.909H246.054V263.125H248.066V268.75H246.054V265H236.373V268.75H234.361ZM237.736 263.125H244.043V253.784H239.611L239.27 257.091C239.128 258.46 238.952 259.656 238.742 260.679C238.532 261.702 238.196 262.517 237.736 263.125ZM256.224 265.273C254.963 265.273 253.875 264.994 252.96 264.438C252.051 263.875 251.349 263.091 250.855 262.085C250.366 261.074 250.122 259.898 250.122 258.557C250.122 257.216 250.366 256.034 250.855 255.011C251.349 253.983 252.037 253.182 252.917 252.608C253.804 252.028 254.838 251.739 256.02 251.739C256.701 251.739 257.375 251.852 258.039 252.08C258.704 252.307 259.309 252.676 259.855 253.188C260.4 253.693 260.835 254.364 261.159 255.199C261.483 256.034 261.645 257.062 261.645 258.284V259.136H251.554V257.398H259.599C259.599 256.659 259.451 256 259.156 255.42C258.866 254.841 258.451 254.384 257.912 254.048C257.377 253.713 256.747 253.545 256.02 253.545C255.218 253.545 254.525 253.744 253.94 254.142C253.36 254.534 252.914 255.045 252.602 255.676C252.289 256.307 252.133 256.983 252.133 257.705V258.864C252.133 259.852 252.304 260.69 252.645 261.378C252.991 262.06 253.471 262.58 254.085 262.938C254.699 263.29 255.412 263.466 256.224 263.466C256.752 263.466 257.23 263.392 257.656 263.244C258.088 263.091 258.46 262.864 258.772 262.562C259.085 262.256 259.326 261.875 259.497 261.42L261.44 261.966C261.235 262.625 260.892 263.205 260.409 263.705C259.926 264.199 259.329 264.585 258.619 264.864C257.909 265.136 257.11 265.273 256.224 265.273ZM273.466 257.534V259.409H266.238V257.534H273.466ZM266.716 251.909V265H264.704V251.909H266.716ZM275 251.909V265H272.988V251.909H275Z" fill="#4F4F4F"/>
</g>
<defs>
<clipPath id="clip0_3_2">
<rect width="342" height="513" fill="white"/>
</clipPath>
<clipPath id="clip1_3_2">
<rect width="216" height="241" fill="white" transform="translate(129.124 253) rotate(40.3773)"/>
</clipPath>
<clipPath id="clip2_3_2">
<rect width="216" height="241" fill="white" transform="translate(225.105 264.684) rotate(-141.951)"/>
</clipPath>
</defs>
</svg>
