<svg width="32" height="32" viewBox="0 0 32 32" fill="none" xmlns="http://www.w3.org/2000/svg">
<path fill-rule="evenodd" clip-rule="evenodd" d="M8.00017 16C8.00017 16.2653 8.10552 16.5196 8.29306 16.7071C8.48059 16.8947 8.73495 17 9.00017 17H20.5862L16.2922 21.292C16.1992 21.385 16.1254 21.4954 16.0751 21.6169C16.0248 21.7384 15.9989 21.8686 15.9989 22C15.9989 22.1315 16.0248 22.2617 16.0751 22.3832C16.1254 22.5047 16.1992 22.6151 16.2922 22.708C16.3851 22.801 16.4955 22.8748 16.617 22.9251C16.7385 22.9754 16.8687 23.0013 17.0002 23.0013C17.1317 23.0013 17.2619 22.9754 17.3833 22.9251C17.5048 22.8748 17.6152 22.801 17.7082 22.708L23.7082 16.708C23.8013 16.6152 23.8752 16.5048 23.9256 16.3833C23.976 16.2618 24.002 16.1316 24.002 16C24.002 15.8685 23.976 15.7383 23.9256 15.6168C23.8752 15.4953 23.8013 15.3849 23.7082 15.292L17.7082 9.29204C17.5204 9.10427 17.2657 8.99878 17.0002 8.99878C16.7346 8.99878 16.4799 9.10427 16.2922 9.29204C16.1044 9.47982 15.9989 9.73449 15.9989 10C15.9989 10.2656 16.1044 10.5203 16.2922 10.708L20.5862 15H9.00017C8.73495 15 8.48059 15.1054 8.29306 15.2929C8.10552 15.4805 8.00017 15.7348 8.00017 16Z" fill="#333333"/>
</svg>
