<svg width="32" height="32" viewBox="0 0 32 32" fill="none" xmlns="http://www.w3.org/2000/svg">
<circle r="16" transform="matrix(-1 0 0 1 16 16)" fill="white"/>
<path fill-rule="evenodd" clip-rule="evenodd" d="M10.0001 16C10.0001 16.1989 10.0791 16.3896 10.2198 16.5303C10.3604 16.671 10.5512 16.75 10.7501 16.75H19.4396L16.2191 19.969C16.1494 20.0387 16.0941 20.1215 16.0563 20.2126C16.0186 20.3037 15.9992 20.4014 15.9992 20.5C15.9992 20.5986 16.0186 20.6962 16.0563 20.7873C16.0941 20.8785 16.1494 20.9612 16.2191 21.031C16.2889 21.1007 16.3716 21.156 16.4627 21.1938C16.5539 21.2315 16.6515 21.2509 16.7501 21.2509C16.8487 21.2509 16.9464 21.2315 17.0375 21.1938C17.1286 21.156 17.2114 21.1007 17.2811 21.031L21.7811 16.531C21.851 16.4613 21.9064 16.3785 21.9442 16.2874C21.982 16.1963 22.0015 16.0986 22.0015 16C22.0015 15.9013 21.982 15.8036 21.9442 15.7125C21.9064 15.6214 21.851 15.5386 21.7811 15.469L17.2811 10.969C17.1403 10.8281 16.9493 10.749 16.7501 10.749C16.551 10.749 16.36 10.8281 16.2191 10.969C16.0783 11.1098 15.9992 11.3008 15.9992 11.5C15.9992 11.6991 16.0783 11.8901 16.2191 12.031L19.4396 15.25H10.7501C10.5512 15.25 10.3604 15.329 10.2198 15.4696C10.0791 15.6103 10.0001 15.8011 10.0001 16Z" fill="#2F80ED"/>
</svg>
