<svg width="32" height="32" viewBox="0 0 32 32" fill="none" xmlns="http://www.w3.org/2000/svg">
<circle cx="16" cy="16" r="16" fill="white"/>
<path fill-rule="evenodd" clip-rule="evenodd" d="M21.9999 16C21.9999 16.1989 21.9209 16.3896 21.7802 16.5303C21.6396 16.671 21.4488 16.75 21.2499 16.75H12.5604L15.7809 19.969C15.8506 20.0387 15.9059 20.1215 15.9437 20.2126C15.9814 20.3037 16.0008 20.4014 16.0008 20.5C16.0008 20.5986 15.9814 20.6962 15.9437 20.7873C15.9059 20.8785 15.8506 20.9612 15.7809 21.031C15.7111 21.1007 15.6284 21.156 15.5373 21.1938C15.4461 21.2315 15.3485 21.2509 15.2499 21.2509C15.1513 21.2509 15.0536 21.2315 14.9625 21.1938C14.8714 21.156 14.7886 21.1007 14.7189 21.031L10.2189 16.531C10.149 16.4613 10.0936 16.3785 10.0558 16.2874C10.018 16.1963 9.99854 16.0986 9.99854 16C9.99854 15.9013 10.018 15.8036 10.0558 15.7125C10.0936 15.6214 10.149 15.5386 10.2189 15.469L14.7189 10.969C14.8597 10.8281 15.0507 10.749 15.2499 10.749C15.449 10.749 15.64 10.8281 15.7809 10.969C15.9217 11.1098 16.0008 11.3008 16.0008 11.5C16.0008 11.6991 15.9217 11.8901 15.7809 12.031L12.5604 15.25H21.2499C21.4488 15.25 21.6396 15.329 21.7802 15.4696C21.9209 15.6103 21.9999 15.8011 21.9999 16Z" fill="#BDBDBD"/>
</svg>
