<svg width="32" height="32" viewBox="0 0 32 32" fill="none" xmlns="http://www.w3.org/2000/svg">
<circle cx="16" cy="16" r="16" fill="white"/>
<path fill-rule="evenodd" clip-rule="evenodd" d="M22.0001 16C22.0001 16.1989 21.9211 16.3896 21.7805 16.5303C21.6398 16.671 21.449 16.75 21.2501 16.75H12.5606L15.7811 19.969C15.8509 20.0387 15.9062 20.1215 15.9439 20.2126C15.9816 20.3037 16.0011 20.4014 16.0011 20.5C16.0011 20.5986 15.9816 20.6962 15.9439 20.7873C15.9062 20.8785 15.8509 20.9612 15.7811 21.031C15.7114 21.1007 15.6286 21.156 15.5375 21.1938C15.4464 21.2315 15.3487 21.2509 15.2501 21.2509C15.1515 21.2509 15.0539 21.2315 14.9627 21.1938C14.8716 21.156 14.7889 21.1007 14.7191 21.031L10.2191 16.531C10.1493 16.4613 10.0939 16.3785 10.0561 16.2874C10.0182 16.1963 9.99878 16.0986 9.99878 16C9.99878 15.9013 10.0182 15.8036 10.0561 15.7125C10.0939 15.6214 10.1493 15.5386 10.2191 15.469L14.7191 10.969C14.8599 10.8281 15.051 10.749 15.2501 10.749C15.4493 10.749 15.6403 10.8281 15.7811 10.969C15.922 11.1098 16.0011 11.3008 16.0011 11.5C16.0011 11.6991 15.922 11.8901 15.7811 12.031L12.5606 15.25H21.2501C21.449 15.25 21.6398 15.329 21.7805 15.4696C21.9211 15.6103 22.0001 15.8011 22.0001 16Z" fill="#BDBDBD"/>
</svg>
