<svg width="40" height="40" viewBox="0 0 40 40" fill="none" xmlns="http://www.w3.org/2000/svg">
<g filter="url(#filter0_dd_305_1369)">
<circle r="16" transform="matrix(-1 0 0 1 20 16)" fill="white"/>
<path fill-rule="evenodd" clip-rule="evenodd" d="M13.9999 15.251C13.9999 15.0521 14.0789 14.8613 14.2196 14.7207C14.3602 14.58 14.551 14.501 14.7499 14.501L23.4394 14.501L20.2189 11.282C20.1491 11.2123 20.0938 11.1295 20.0561 11.0384C20.0184 10.9473 19.9989 10.8496 19.9989 10.751C19.9989 10.6524 20.0184 10.5547 20.0561 10.4636C20.0938 10.3725 20.1491 10.2897 20.2189 10.22C20.2886 10.1503 20.3714 10.095 20.4625 10.0572C20.5536 10.0195 20.6513 10.0001 20.7499 10.0001C20.8485 10.0001 20.9461 10.0195 21.0373 10.0572C21.1284 10.095 21.2111 10.1503 21.2809 10.22L25.7809 14.72C25.8507 14.7897 25.9061 14.8724 25.9439 14.9636C25.9818 15.0547 26.0012 15.1524 26.0012 15.251C26.0012 15.3497 25.9818 15.4473 25.9439 15.5385C25.9061 15.6296 25.8507 15.7123 25.7809 15.782L21.2809 20.282C21.1401 20.4228 20.949 20.502 20.7499 20.502C20.5507 20.502 20.3597 20.4228 20.2189 20.282C20.078 20.1412 19.9989 19.9502 19.9989 19.751C19.9989 19.5518 20.078 19.3608 20.2189 19.22L23.4394 16.001L14.7499 16.001C14.551 16.001 14.3602 15.922 14.2196 15.7813C14.0789 15.6407 13.9999 15.4499 13.9999 15.251Z" fill="#BDBDBD"/>
</g>
<defs>
<filter id="filter0_dd_305_1369" x="0" y="0" width="40" height="40" filterUnits="userSpaceOnUse" color-interpolation-filters="sRGB">
<feFlood flood-opacity="0" result="BackgroundImageFix"/>
<feColorMatrix in="SourceAlpha" type="matrix" values="0 0 0 0 0 0 0 0 0 0 0 0 0 0 0 0 0 0 127 0" result="hardAlpha"/>
<feOffset dy="4"/>
<feGaussianBlur stdDeviation="2"/>
<feComposite in2="hardAlpha" operator="out"/>
<feColorMatrix type="matrix" values="0 0 0 0 0 0 0 0 0 0 0 0 0 0 0 0 0 0 0.25 0"/>
<feBlend mode="normal" in2="BackgroundImageFix" result="effect1_dropShadow_305_1369"/>
<feColorMatrix in="SourceAlpha" type="matrix" values="0 0 0 0 0 0 0 0 0 0 0 0 0 0 0 0 0 0 127 0" result="hardAlpha"/>
<feOffset dy="4"/>
<feGaussianBlur stdDeviation="2"/>
<feComposite in2="hardAlpha" operator="out"/>
<feColorMatrix type="matrix" values="0 0 0 0 0 0 0 0 0 0 0 0 0 0 0 0 0 0 0.25 0"/>
<feBlend mode="normal" in2="effect1_dropShadow_305_1369" result="effect2_dropShadow_305_1369"/>
<feBlend mode="normal" in="SourceGraphic" in2="effect2_dropShadow_305_1369" result="shape"/>
</filter>
</defs>
</svg>
